<?xml version="1.0" standalone="no"?>
<!DOCTYPE svg PUBLIC "-//W3C//DTD SVG 20010904//EN"
 "http://www.w3.org/TR/2001/REC-SVG-20010904/DTD/svg10.dtd">
<svg version="1.0" xmlns="http://www.w3.org/2000/svg"
 width="72.000000pt" height="72.000000pt" viewBox="0 0 72.000000 72.000000"
 preserveAspectRatio="xMidYMid meet">
<metadata>
Created by potrace 1.14, written by Peter Selinger 2001-2017
</metadata>
<g transform="translate(0.000000,72.000000) scale(0.100000,-0.100000)"
fill="#000000" stroke="none">
<path d="M330 684 c-41 -18 -90 -62 -90 -81 0 -7 -5 -13 -10 -13 -6 0 -9 -3
-8 -7 2 -5 0 -8 -3 -8 -3 0 -18 -14 -33 -32 -104 -123 -57 -284 95 -324 37
-10 59 -10 108 1 34 7 59 15 57 18 -3 2 9 16 25 29 36 31 69 92 69 130 0 15 6
48 13 73 28 95 -3 169 -86 209 -51 25 -89 26 -137 5z"/>
<path d="M335 140 c-26 -28 -15 -31 12 -3 12 13 19 23 14 23 -4 0 -16 -9 -26
-20z"/>
<path d="M163 137 c4 -11 1 -20 -8 -23 -8 -4 -12 -10 -9 -16 3 -5 13 0 21 12
12 17 13 24 3 33 -10 9 -12 8 -7 -6z"/>
<path d="M226 125 c-9 -13 -16 -28 -16 -32 0 -4 5 0 11 10 6 9 14 15 18 13 4
-3 8 4 8 15 2 25 -1 24 -21 -6z"/>
<path d="M115 111 c-3 -5 -1 -12 5 -16 5 -3 10 1 10 9 0 18 -6 21 -15 7z"/>
<path d="M64 95 c-9 -21 -2 -26 13 -10 8 9 9 16 3 20 -6 3 -13 -1 -16 -10z"/>
<path d="M181 94 c0 -11 3 -14 6 -6 3 7 2 16 -1 19 -3 4 -6 -2 -5 -13z"/>
<path d="M536 75 c-7 -36 -21 -46 -29 -20 -4 11 -4 10 -3 -2 1 -10 9 -19 17
-21 12 -2 19 7 23 34 4 20 5 38 3 40 -3 3 -8 -11 -11 -31z"/>
<path d="M311 80 c-1 -26 15 -50 33 -50 5 0 3 6 -6 13 -9 6 -19 23 -21 37 l-4
25 -2 -25z"/>
<path d="M415 90 c3 -5 1 -19 -6 -31 -9 -17 -13 -19 -20 -8 -6 9 -9 10 -9 2 0
-17 17 -25 26 -12 5 8 8 8 14 0 4 -7 7 4 8 24 1 19 -3 35 -9 35 -6 0 -7 -4 -4
-10z"/>
<path d="M605 90 c-3 -6 1 -7 9 -4 18 7 21 14 7 14 -6 0 -13 -4 -16 -10z"/>
<path d="M651 93 c-1 -6 -4 -20 -7 -30 -5 -17 -5 -17 6 0 6 10 9 23 6 30 -3 9
-5 9 -5 0z"/>
<path d="M452 85 c4 -4 3 -14 -3 -21 -6 -7 -6 -15 -1 -18 6 -3 12 3 15 14 3
11 0 23 -6 27 -7 3 -9 3 -5 -2z"/>
<path d="M195 69 c-4 -6 -5 -12 -2 -15 2 -3 7 2 10 11 7 17 1 20 -8 4z"/>
<path d="M607 73 c-21 -5 -19 -34 3 -40 13 -4 13 -3 0 6 -13 9 -12 12 5 25 21
16 21 16 -8 9z"/>
<path d="M141 44 c0 -11 3 -14 6 -6 3 7 2 16 -1 19 -3 4 -6 -2 -5 -13z"/>
</g>
</svg>
